<svg width="375" height="379" viewBox="0 0 375 379" fill="none" xmlns="http://www.w3.org/2000/svg">
<mask id="path-1-inside-1_120_38" fill="white">
<path d="M195.366 75.0706L193.712 76.7724C192.46 78.0597 190.278 77.1736 190.278 75.3782V58.4447C190.278 57.9019 190.057 57.3824 189.667 57.0055L189.061 56.4215C188.253 55.6418 186.962 55.6798 186.202 56.5056L185.706 57.0432C185.379 57.3992 185.191 57.8619 185.178 58.3456L184.735 75.1669C184.687 76.9899 182.424 77.8029 181.227 76.4269L180.118 75.1521C179.738 74.7155 179.188 74.4648 178.609 74.4648H177.053C176.066 74.4648 175.226 75.1854 175.076 76.1613L174.877 77.4574C174.789 78.0294 174.954 78.6113 175.328 79.053L184.407 89.7801C184.724 90.1543 184.892 90.6318 184.88 91.122L184.74 96.7316C184.694 98.6141 182.308 99.3945 181.158 97.9037L175.832 91.0024C175.514 90.5911 175.049 90.3194 174.535 90.245L173.141 90.0432C171.935 89.8686 170.854 90.804 170.854 92.0226V93.5013C170.854 93.9865 171.031 94.4552 171.351 94.82L184.104 109.363C184.424 109.728 184.6 110.197 184.6 110.682V118.392C184.6 119.496 185.496 120.392 186.6 120.392H188.278C189.382 120.392 190.278 119.496 190.278 118.392V110.694C190.278 110.201 190.46 109.726 190.788 109.359L203.812 94.8237C204.141 94.4569 204.322 93.9816 204.322 93.4891V92.1977C204.322 91.0322 203.33 90.1136 202.168 90.2037L200.989 90.2952C200.446 90.3373 199.944 90.5989 199.598 91.0196L193.967 97.8735C192.76 99.3435 190.375 98.4561 190.422 96.5541L190.56 91.0323C190.571 90.5967 190.724 90.1767 190.995 89.8359L199.703 78.9047C199.985 78.5506 200.139 78.1112 200.139 77.6585V76.4648C200.139 75.3602 199.244 74.4648 198.139 74.4648H196.8C196.26 74.4648 195.743 74.6833 195.366 75.0706Z"/>
<path d="M265.336 184.784H255.857C254.752 184.784 253.857 185.679 253.857 186.784V188.623C253.857 189.728 254.752 190.623 255.857 190.623H265.354C265.84 190.623 266.31 190.801 266.675 191.122L282.874 205.372C283.239 205.694 283.708 205.871 284.195 205.871H285.044C286.253 205.871 287.185 204.808 287.027 203.61L286.816 202.005C286.758 201.567 286.557 201.16 286.244 200.848L279.404 194.041C278.139 192.782 279.03 190.623 280.815 190.623H284.969C285.519 190.623 286.045 190.85 286.423 191.249L296.78 202.205C297.222 202.673 297.863 202.9 298.502 202.813L300.009 202.609C301.205 202.446 301.986 201.269 301.67 200.104L300.9 197.259C300.816 196.949 300.658 196.664 300.44 196.427L298.185 193.978C297.004 192.697 297.913 190.623 299.656 190.623H315.371C315.966 190.623 316.53 190.358 316.91 189.9L317.816 188.807C318.484 188.002 318.418 186.818 317.665 186.091L316.892 185.345C316.519 184.985 316.021 184.784 315.503 184.784H300.104C298.297 184.784 297.416 182.578 298.726 181.334L301.643 178.563C302.041 178.185 302.266 177.661 302.266 177.113V175.824C302.266 174.577 301.137 173.634 299.91 173.856L297.469 174.297C297.089 174.366 296.737 174.543 296.456 174.807L286.408 184.242C286.037 184.59 285.548 184.784 285.039 184.784H280.173C278.355 184.784 277.48 182.553 278.814 181.317L286.684 174.023C287.093 173.645 287.325 173.113 287.325 172.556V171.502C287.325 170.29 286.256 169.357 285.056 169.52L283.159 169.777C282.758 169.832 282.383 170.007 282.084 170.278L266.68 184.265C266.312 184.599 265.833 184.784 265.336 184.784Z"/>
<path d="M118.546 184.784H109.099C108.582 184.784 108.086 184.584 107.713 184.226L93.2255 170.313C92.9199 170.019 92.5289 169.83 92.1091 169.773L90.5942 169.568C89.2797 169.389 88.1589 170.517 88.345 171.83L88.48 172.783C88.5396 173.203 88.7313 173.593 89.0273 173.897L96.3219 181.389C97.5561 182.656 96.6581 184.784 94.8891 184.784H89.4486C88.8897 184.784 88.3562 184.55 87.9776 184.139L79.4379 174.868C79.159 174.565 78.7935 174.356 78.3912 174.268L76.9514 173.956C75.7049 173.685 74.527 174.635 74.527 175.91V177.247C74.527 177.715 74.6911 178.168 74.9906 178.528L77.4708 181.503C78.5564 182.806 77.6301 184.784 75.9344 184.784H59.8031C59.2807 184.784 58.779 184.988 58.4054 185.353L57.4641 186.273C56.661 187.058 56.661 188.35 57.4641 189.134L58.4054 190.054C58.779 190.419 59.2807 190.623 59.8031 190.623H75.7459C77.4724 190.623 78.3877 192.664 77.2396 193.953L72.0451 199.787C71.719 200.153 71.5388 200.627 71.5388 201.117V202.249C71.5388 203.353 72.4342 204.249 73.5388 204.249H74.5741C75.1169 204.249 75.6364 204.028 76.0133 203.637L87.9819 191.235C88.3588 190.844 88.8783 190.623 89.4211 190.623H94.4764C96.3017 190.623 97.173 192.868 95.8258 194.099L88.7076 200.607C88.4238 200.867 88.2208 201.202 88.1229 201.574L87.7379 203.037C87.4041 204.306 88.3606 205.546 89.672 205.546H91.0862C91.5833 205.546 92.0626 205.361 92.4307 205.027L107.722 191.143C108.09 190.808 108.569 190.623 109.066 190.623H118.546C119.65 190.623 120.546 189.728 120.546 188.623V186.784C120.546 185.679 119.65 184.784 118.546 184.784Z"/>
<path d="M190.278 269.507V257.9C190.278 256.795 189.382 255.9 188.278 255.9H186.003C184.898 255.9 184.003 256.795 184.003 257.9V269.507C184.003 269.94 183.862 270.361 183.602 270.708L171.255 287.159C170.995 287.505 170.854 287.927 170.854 288.36V288.937C170.854 290.041 171.766 290.937 172.871 290.937C173.48 290.937 174.064 290.659 174.443 290.183L183.163 279.237C183.316 279.045 183.548 278.933 183.794 278.933C184.239 278.933 184.6 279.294 184.6 279.74V290.224C184.6 290.685 184.441 291.132 184.15 291.489L175.787 301.739C175.496 302.096 175.337 302.543 175.337 303.003V303.86C175.337 304.964 176.232 305.86 177.337 305.86H177.448C178.007 305.86 178.54 305.626 178.919 305.215L180.893 303.072C182.119 301.741 184.341 302.592 184.364 304.402L184.588 322.413C184.596 323.023 184.881 323.596 185.362 323.969L185.545 324.11C186.229 324.641 187.177 324.671 187.893 324.185L188.232 323.955C188.766 323.593 189.092 322.995 189.108 322.35L189.569 303.854C189.612 302.124 191.683 301.262 192.941 302.45L195.975 305.314C196.346 305.664 196.837 305.86 197.348 305.86H197.84C198.945 305.86 199.84 304.964 199.84 303.86V303.072C199.84 302.57 199.651 302.086 199.311 301.717L189.91 291.511C189.57 291.142 189.381 290.658 189.381 290.156V279.538C189.381 279.204 189.652 278.933 189.986 278.933C190.171 278.933 190.345 279.017 190.459 279.161L199.24 290.183C199.619 290.659 200.195 290.937 200.804 290.937H201.426C202.531 290.937 203.426 290.041 203.426 288.937V288.36C203.426 287.927 203.286 287.505 203.026 287.159L190.678 270.708C190.418 270.361 190.278 269.94 190.278 269.507Z"/>
</mask>
<path d="M195.366 75.0706L193.712 76.7724C192.46 78.0597 190.278 77.1736 190.278 75.3782V58.4447C190.278 57.9019 190.057 57.3824 189.667 57.0055L189.061 56.4215C188.253 55.6418 186.962 55.6798 186.202 56.5056L185.706 57.0432C185.379 57.3992 185.191 57.8619 185.178 58.3456L184.735 75.1669C184.687 76.9899 182.424 77.8029 181.227 76.4269L180.118 75.1521C179.738 74.7155 179.188 74.4648 178.609 74.4648H177.053C176.066 74.4648 175.226 75.1854 175.076 76.1613L174.877 77.4574C174.789 78.0294 174.954 78.6113 175.328 79.053L184.407 89.7801C184.724 90.1543 184.892 90.6318 184.88 91.122L184.74 96.7316C184.694 98.6141 182.308 99.3945 181.158 97.9037L175.832 91.0024C175.514 90.5911 175.049 90.3194 174.535 90.245L173.141 90.0432C171.935 89.8686 170.854 90.804 170.854 92.0226V93.5013C170.854 93.9865 171.031 94.4552 171.351 94.82L184.104 109.363C184.424 109.728 184.6 110.197 184.6 110.682V118.392C184.6 119.496 185.496 120.392 186.6 120.392H188.278C189.382 120.392 190.278 119.496 190.278 118.392V110.694C190.278 110.201 190.46 109.726 190.788 109.359L203.812 94.8237C204.141 94.4569 204.322 93.9816 204.322 93.4891V92.1977C204.322 91.0322 203.33 90.1136 202.168 90.2037L200.989 90.2952C200.446 90.3373 199.944 90.5989 199.598 91.0196L193.967 97.8735C192.76 99.3435 190.375 98.4561 190.422 96.5541L190.56 91.0323C190.571 90.5967 190.724 90.1767 190.995 89.8359L199.703 78.9047C199.985 78.5506 200.139 78.1112 200.139 77.6585V76.4648C200.139 75.3602 199.244 74.4648 198.139 74.4648H196.8C196.26 74.4648 195.743 74.6833 195.366 75.0706Z" fill="#4BA1FC"/>
<path d="M265.336 184.784H255.857C254.752 184.784 253.857 185.679 253.857 186.784V188.623C253.857 189.728 254.752 190.623 255.857 190.623H265.354C265.84 190.623 266.31 190.801 266.675 191.122L282.874 205.372C283.239 205.694 283.708 205.871 284.195 205.871H285.044C286.253 205.871 287.185 204.808 287.027 203.61L286.816 202.005C286.758 201.567 286.557 201.16 286.244 200.848L279.404 194.041C278.139 192.782 279.03 190.623 280.815 190.623H284.969C285.519 190.623 286.045 190.85 286.423 191.249L296.78 202.205C297.222 202.673 297.863 202.9 298.502 202.813L300.009 202.609C301.205 202.446 301.986 201.269 301.67 200.104L300.9 197.259C300.816 196.949 300.658 196.664 300.44 196.427L298.185 193.978C297.004 192.697 297.913 190.623 299.656 190.623H315.371C315.966 190.623 316.53 190.358 316.91 189.9L317.816 188.807C318.484 188.002 318.418 186.818 317.665 186.091L316.892 185.345C316.519 184.985 316.021 184.784 315.503 184.784H300.104C298.297 184.784 297.416 182.578 298.726 181.334L301.643 178.563C302.041 178.185 302.266 177.661 302.266 177.113V175.824C302.266 174.577 301.137 173.634 299.91 173.856L297.469 174.297C297.089 174.366 296.737 174.543 296.456 174.807L286.408 184.242C286.037 184.59 285.548 184.784 285.039 184.784H280.173C278.355 184.784 277.48 182.553 278.814 181.317L286.684 174.023C287.093 173.645 287.325 173.113 287.325 172.556V171.502C287.325 170.29 286.256 169.357 285.056 169.52L283.159 169.777C282.758 169.832 282.383 170.007 282.084 170.278L266.68 184.265C266.312 184.599 265.833 184.784 265.336 184.784Z" fill="#4BA1FC"/>
<path d="M118.546 184.784H109.099C108.582 184.784 108.086 184.584 107.713 184.226L93.2255 170.313C92.9199 170.019 92.5289 169.83 92.1091 169.773L90.5942 169.568C89.2797 169.389 88.1589 170.517 88.345 171.83L88.48 172.783C88.5396 173.203 88.7313 173.593 89.0273 173.897L96.3219 181.389C97.5561 182.656 96.6581 184.784 94.8891 184.784H89.4486C88.8897 184.784 88.3562 184.55 87.9776 184.139L79.4379 174.868C79.159 174.565 78.7935 174.356 78.3912 174.268L76.9514 173.956C75.7049 173.685 74.527 174.635 74.527 175.91V177.247C74.527 177.715 74.6911 178.168 74.9906 178.528L77.4708 181.503C78.5564 182.806 77.6301 184.784 75.9344 184.784H59.8031C59.2807 184.784 58.779 184.988 58.4054 185.353L57.4641 186.273C56.661 187.058 56.661 188.35 57.4641 189.134L58.4054 190.054C58.779 190.419 59.2807 190.623 59.8031 190.623H75.7459C77.4724 190.623 78.3877 192.664 77.2396 193.953L72.0451 199.787C71.719 200.153 71.5388 200.627 71.5388 201.117V202.249C71.5388 203.353 72.4342 204.249 73.5388 204.249H74.5741C75.1169 204.249 75.6364 204.028 76.0133 203.637L87.9819 191.235C88.3588 190.844 88.8783 190.623 89.4211 190.623H94.4764C96.3017 190.623 97.173 192.868 95.8258 194.099L88.7076 200.607C88.4238 200.867 88.2208 201.202 88.1229 201.574L87.7379 203.037C87.4041 204.306 88.3606 205.546 89.672 205.546H91.0862C91.5833 205.546 92.0626 205.361 92.4307 205.027L107.722 191.143C108.09 190.808 108.569 190.623 109.066 190.623H118.546C119.65 190.623 120.546 189.728 120.546 188.623V186.784C120.546 185.679 119.65 184.784 118.546 184.784Z" fill="#4BA1FC"/>
<path d="M190.278 269.507V257.9C190.278 256.795 189.382 255.9 188.278 255.9H186.003C184.898 255.9 184.003 256.795 184.003 257.9V269.507C184.003 269.94 183.862 270.361 183.602 270.708L171.255 287.159C170.995 287.505 170.854 287.927 170.854 288.36V288.937C170.854 290.041 171.766 290.937 172.871 290.937C173.48 290.937 174.064 290.659 174.443 290.183L183.163 279.237C183.316 279.045 183.548 278.933 183.794 278.933C184.239 278.933 184.6 279.294 184.6 279.74V290.224C184.6 290.685 184.441 291.132 184.15 291.489L175.787 301.739C175.496 302.096 175.337 302.543 175.337 303.003V303.86C175.337 304.964 176.232 305.86 177.337 305.86H177.448C178.007 305.86 178.54 305.626 178.919 305.215L180.893 303.072C182.119 301.741 184.341 302.592 184.364 304.402L184.588 322.413C184.596 323.023 184.881 323.596 185.362 323.969L185.545 324.11C186.229 324.641 187.177 324.671 187.893 324.185L188.232 323.955C188.766 323.593 189.092 322.995 189.108 322.35L189.569 303.854C189.612 302.124 191.683 301.262 192.941 302.45L195.975 305.314C196.346 305.664 196.837 305.86 197.348 305.86H197.84C198.945 305.86 199.84 304.964 199.84 303.86V303.072C199.84 302.57 199.651 302.086 199.311 301.717L189.91 291.511C189.57 291.142 189.381 290.658 189.381 290.156V279.538C189.381 279.204 189.652 278.933 189.986 278.933C190.171 278.933 190.345 279.017 190.459 279.161L199.24 290.183C199.619 290.659 200.195 290.937 200.804 290.937H201.426C202.531 290.937 203.426 290.041 203.426 288.937V288.36C203.426 287.927 203.286 287.505 203.026 287.159L190.678 270.708C190.418 270.361 190.278 269.94 190.278 269.507Z" fill="#4BA1FC"/>
<path d="M195.366 75.0706L193.712 76.7724C192.46 78.0597 190.278 77.1736 190.278 75.3782V58.4447C190.278 57.9019 190.057 57.3824 189.667 57.0055L189.061 56.4215C188.253 55.6418 186.962 55.6798 186.202 56.5056L185.706 57.0432C185.379 57.3992 185.191 57.8619 185.178 58.3456L184.735 75.1669C184.687 76.9899 182.424 77.8029 181.227 76.4269L180.118 75.1521C179.738 74.7155 179.188 74.4648 178.609 74.4648H177.053C176.066 74.4648 175.226 75.1854 175.076 76.1613L174.877 77.4574C174.789 78.0294 174.954 78.6113 175.328 79.053L184.407 89.7801C184.724 90.1543 184.892 90.6318 184.88 91.122L184.74 96.7316C184.694 98.6141 182.308 99.3945 181.158 97.9037L175.832 91.0024C175.514 90.5911 175.049 90.3194 174.535 90.245L173.141 90.0432C171.935 89.8686 170.854 90.804 170.854 92.0226V93.5013C170.854 93.9865 171.031 94.4552 171.351 94.82L184.104 109.363C184.424 109.728 184.6 110.197 184.6 110.682V118.392C184.6 119.496 185.496 120.392 186.6 120.392H188.278C189.382 120.392 190.278 119.496 190.278 118.392V110.694C190.278 110.201 190.46 109.726 190.788 109.359L203.812 94.8237C204.141 94.4569 204.322 93.9816 204.322 93.4891V92.1977C204.322 91.0322 203.33 90.1136 202.168 90.2037L200.989 90.2952C200.446 90.3373 199.944 90.5989 199.598 91.0196L193.967 97.8735C192.76 99.3435 190.375 98.4561 190.422 96.5541L190.56 91.0323C190.571 90.5967 190.724 90.1767 190.995 89.8359L199.703 78.9047C199.985 78.5506 200.139 78.1112 200.139 77.6585V76.4648C200.139 75.3602 199.244 74.4648 198.139 74.4648H196.8C196.26 74.4648 195.743 74.6833 195.366 75.0706Z" stroke="#4BA1FC" stroke-width="2" mask="url(#path-1-inside-1_120_38)"/>
<path d="M265.336 184.784H255.857C254.752 184.784 253.857 185.679 253.857 186.784V188.623C253.857 189.728 254.752 190.623 255.857 190.623H265.354C265.84 190.623 266.31 190.801 266.675 191.122L282.874 205.372C283.239 205.694 283.708 205.871 284.195 205.871H285.044C286.253 205.871 287.185 204.808 287.027 203.61L286.816 202.005C286.758 201.567 286.557 201.16 286.244 200.848L279.404 194.041C278.139 192.782 279.03 190.623 280.815 190.623H284.969C285.519 190.623 286.045 190.85 286.423 191.249L296.78 202.205C297.222 202.673 297.863 202.9 298.502 202.813L300.009 202.609C301.205 202.446 301.986 201.269 301.67 200.104L300.9 197.259C300.816 196.949 300.658 196.664 300.44 196.427L298.185 193.978C297.004 192.697 297.913 190.623 299.656 190.623H315.371C315.966 190.623 316.53 190.358 316.91 189.9L317.816 188.807C318.484 188.002 318.418 186.818 317.665 186.091L316.892 185.345C316.519 184.985 316.021 184.784 315.503 184.784H300.104C298.297 184.784 297.416 182.578 298.726 181.334L301.643 178.563C302.041 178.185 302.266 177.661 302.266 177.113V175.824C302.266 174.577 301.137 173.634 299.91 173.856L297.469 174.297C297.089 174.366 296.737 174.543 296.456 174.807L286.408 184.242C286.037 184.59 285.548 184.784 285.039 184.784H280.173C278.355 184.784 277.48 182.553 278.814 181.317L286.684 174.023C287.093 173.645 287.325 173.113 287.325 172.556V171.502C287.325 170.29 286.256 169.357 285.056 169.52L283.159 169.777C282.758 169.832 282.383 170.007 282.084 170.278L266.68 184.265C266.312 184.599 265.833 184.784 265.336 184.784Z" stroke="#4BA1FC" stroke-width="2" mask="url(#path-1-inside-1_120_38)"/>
<path d="M118.546 184.784H109.099C108.582 184.784 108.086 184.584 107.713 184.226L93.2255 170.313C92.9199 170.019 92.5289 169.83 92.1091 169.773L90.5942 169.568C89.2797 169.389 88.1589 170.517 88.345 171.83L88.48 172.783C88.5396 173.203 88.7313 173.593 89.0273 173.897L96.3219 181.389C97.5561 182.656 96.6581 184.784 94.8891 184.784H89.4486C88.8897 184.784 88.3562 184.55 87.9776 184.139L79.4379 174.868C79.159 174.565 78.7935 174.356 78.3912 174.268L76.9514 173.956C75.7049 173.685 74.527 174.635 74.527 175.91V177.247C74.527 177.715 74.6911 178.168 74.9906 178.528L77.4708 181.503C78.5564 182.806 77.6301 184.784 75.9344 184.784H59.8031C59.2807 184.784 58.779 184.988 58.4054 185.353L57.4641 186.273C56.661 187.058 56.661 188.35 57.4641 189.134L58.4054 190.054C58.779 190.419 59.2807 190.623 59.8031 190.623H75.7459C77.4724 190.623 78.3877 192.664 77.2396 193.953L72.0451 199.787C71.719 200.153 71.5388 200.627 71.5388 201.117V202.249C71.5388 203.353 72.4342 204.249 73.5388 204.249H74.5741C75.1169 204.249 75.6364 204.028 76.0133 203.637L87.9819 191.235C88.3588 190.844 88.8783 190.623 89.4211 190.623H94.4764C96.3017 190.623 97.173 192.868 95.8258 194.099L88.7076 200.607C88.4238 200.867 88.2208 201.202 88.1229 201.574L87.7379 203.037C87.4041 204.306 88.3606 205.546 89.672 205.546H91.0862C91.5833 205.546 92.0626 205.361 92.4307 205.027L107.722 191.143C108.09 190.808 108.569 190.623 109.066 190.623H118.546C119.65 190.623 120.546 189.728 120.546 188.623V186.784C120.546 185.679 119.65 184.784 118.546 184.784Z" stroke="#4BA1FC" stroke-width="2" mask="url(#path-1-inside-1_120_38)"/>
<path d="M190.278 269.507V257.9C190.278 256.795 189.382 255.9 188.278 255.9H186.003C184.898 255.9 184.003 256.795 184.003 257.9V269.507C184.003 269.94 183.862 270.361 183.602 270.708L171.255 287.159C170.995 287.505 170.854 287.927 170.854 288.36V288.937C170.854 290.041 171.766 290.937 172.871 290.937C173.48 290.937 174.064 290.659 174.443 290.183L183.163 279.237C183.316 279.045 183.548 278.933 183.794 278.933C184.239 278.933 184.6 279.294 184.6 279.74V290.224C184.6 290.685 184.441 291.132 184.15 291.489L175.787 301.739C175.496 302.096 175.337 302.543 175.337 303.003V303.86C175.337 304.964 176.232 305.86 177.337 305.86H177.448C178.007 305.86 178.54 305.626 178.919 305.215L180.893 303.072C182.119 301.741 184.341 302.592 184.364 304.402L184.588 322.413C184.596 323.023 184.881 323.596 185.362 323.969L185.545 324.11C186.229 324.641 187.177 324.671 187.893 324.185L188.232 323.955C188.766 323.593 189.092 322.995 189.108 322.35L189.569 303.854C189.612 302.124 191.683 301.262 192.941 302.45L195.975 305.314C196.346 305.664 196.837 305.86 197.348 305.86H197.84C198.945 305.86 199.84 304.964 199.84 303.86V303.072C199.84 302.57 199.651 302.086 199.311 301.717L189.91 291.511C189.57 291.142 189.381 290.658 189.381 290.156V279.538C189.381 279.204 189.652 278.933 189.986 278.933C190.171 278.933 190.345 279.017 190.459 279.161L199.24 290.183C199.619 290.659 200.195 290.937 200.804 290.937H201.426C202.531 290.937 203.426 290.041 203.426 288.937V288.36C203.426 287.927 203.286 287.505 203.026 287.159L190.678 270.708C190.418 270.361 190.278 269.94 190.278 269.507Z" stroke="#4BA1FC" stroke-width="2" mask="url(#path-1-inside-1_120_38)"/>
<mask id="path-2-inside-2_120_38" fill="white">
<path d="M114.326 102.05L114.307 104.473C114.293 106.271 112.125 107.147 110.886 105.856L99.2474 93.7294C98.8687 93.3348 98.3464 93.114 97.802 93.1184L96.9511 93.1252C95.8428 93.1341 94.9549 94.0548 94.976 95.1732L94.9901 95.9195C94.9993 96.4095 95.1856 96.879 95.514 97.2399L106.761 109.601C107.984 110.945 106.94 113.108 105.136 112.963L103.421 112.825C102.851 112.779 102.288 112.983 101.878 113.385L100.743 114.494C100.038 115.183 99.9358 116.288 100.502 117.097L101.237 118.146C101.572 118.625 102.098 118.932 102.677 118.986L116.557 120.291C117.047 120.338 117.503 120.565 117.836 120.931L121.594 125.049C122.859 126.435 121.705 128.66 119.855 128.4L111.242 127.191C110.732 127.12 110.215 127.25 109.799 127.555L108.64 128.403C107.659 129.121 107.535 130.549 108.378 131.428L109.378 132.469C109.717 132.822 110.172 133.038 110.658 133.075L129.804 134.534C130.29 134.571 130.745 134.786 131.084 135.139L136.367 140.644C137.132 141.441 138.392 141.461 139.182 140.689L140.401 139.497C141.191 138.725 141.211 137.453 140.446 136.656L135.172 131.16C134.828 130.802 134.628 130.327 134.612 129.828L133.976 110.283C133.96 109.785 133.76 109.31 133.416 108.952L132.546 108.045C131.74 107.204 130.395 107.235 129.626 108.111L128.827 109.021C128.47 109.428 128.291 109.964 128.332 110.506L129.002 119.414C129.145 121.314 126.831 122.33 125.552 120.928L121.855 116.876C121.558 116.551 121.376 116.137 121.336 115.697L120.079 101.765C120.038 101.308 119.843 100.879 119.527 100.55L118.723 99.713C117.959 98.9161 116.698 98.896 115.908 99.6682L114.932 100.623C114.549 100.998 114.33 101.512 114.326 102.05Z"/>
<path d="M240.042 131.499L233.217 138.171C232.427 138.944 232.407 140.216 233.171 141.012L234.417 142.31C235.181 143.107 236.442 143.127 237.232 142.355L244.07 135.67C244.415 135.333 244.868 135.133 245.348 135.106L266.798 133.936C267.277 133.91 267.731 133.71 268.076 133.373L268.699 132.764C269.564 131.918 269.493 130.498 268.549 129.744L267.316 128.761C266.969 128.484 266.539 128.331 266.097 128.328L256.553 128.257C254.772 128.243 253.904 126.056 255.184 124.805L258.164 121.891C258.554 121.509 259.082 121.305 259.625 121.326L274.613 121.9C275.249 121.924 275.858 121.641 276.252 121.137L277.203 119.92C277.949 118.965 277.691 117.565 276.653 116.946L274.17 115.466C273.893 115.3 273.58 115.205 273.259 115.189L270.002 115.021C268.264 114.932 267.469 112.794 268.719 111.572L280.008 100.536C280.431 100.122 280.651 99.5413 280.609 98.9488L280.51 97.5507C280.435 96.4933 279.559 95.6768 278.509 95.6853L277.457 95.6937C276.945 95.6978 276.455 95.9006 276.087 96.2599L265.029 107.071C263.733 108.338 261.57 107.352 261.656 105.533L261.844 101.554C261.87 100.999 261.668 100.459 261.285 100.06L260.416 99.155C259.554 98.2564 258.096 98.3636 257.371 99.3788L255.908 101.428C255.685 101.741 255.556 102.111 255.535 102.496L254.802 116.323C254.775 116.829 254.56 117.306 254.199 117.659L250.71 121.07C249.405 122.345 247.229 121.337 247.338 119.507L247.974 108.809C248.008 108.247 247.805 107.696 247.417 107.291L246.71 106.554C245.872 105.681 244.463 105.754 243.717 106.708L242.518 108.242C242.27 108.559 242.123 108.943 242.095 109.346L240.643 130.196C240.608 130.69 240.394 131.154 240.042 131.499Z"/>
<path d="M134.572 234.609L127.769 241.259C127.403 241.617 126.915 241.82 126.405 241.825L106.418 242.034C105.999 242.039 105.592 242.176 105.255 242.427L104.01 243.356C102.947 244.148 102.929 245.745 103.973 246.561L104.704 247.131C105.04 247.394 105.451 247.541 105.876 247.551L116.217 247.793C117.983 247.834 118.824 250.004 117.555 251.244L113.65 255.062C113.254 255.45 112.715 255.654 112.164 255.626L99.6449 254.982C99.2381 254.961 98.8346 255.067 98.489 255.285L97.2198 256.084C96.1444 256.762 95.9619 258.268 96.8437 259.187L97.747 260.128C98.0737 260.468 98.5093 260.681 98.9766 260.729L102.755 261.114C104.44 261.285 105.156 263.366 103.94 264.556L92.3502 275.886C91.9795 276.248 91.7627 276.741 91.7454 277.262L91.7021 278.562C91.6643 279.698 92.5678 280.64 93.6947 280.638L94.9832 280.635C95.4991 280.634 95.9945 280.431 96.3651 280.069L107.818 268.873C109.056 267.662 111.13 268.504 111.192 270.243L111.469 278.019C111.487 278.516 111.686 278.988 112.029 279.344L112.788 280.136C113.553 280.933 114.814 280.953 115.603 280.181L116.362 279.439C116.747 279.063 116.966 278.545 116.968 278.004L117.04 260.7C117.042 260.159 117.26 259.641 117.646 259.265L121.271 255.72C122.58 254.44 124.764 255.461 124.642 257.297L124.006 266.907C123.98 267.294 124.066 267.681 124.254 268.02L124.968 269.312C125.605 270.464 127.152 270.693 128.091 269.775L129.118 268.771C129.471 268.426 129.685 267.962 129.719 267.468L131.16 246.768C131.195 246.273 131.409 245.81 131.761 245.465L138.587 238.792C139.377 238.02 139.397 236.748 138.632 235.951L137.387 234.654C136.622 233.857 135.362 233.837 134.572 234.609Z"/>
<path d="M244.35 244.917L236.386 236.619C235.622 235.822 234.361 235.802 233.571 236.575L231.923 238.186C231.133 238.958 231.113 240.23 231.878 241.027L239.841 249.324C240.143 249.64 240.335 250.046 240.387 250.482L242.825 270.924C242.877 271.36 243.069 271.767 243.371 272.082L243.751 272.477C244.516 273.274 245.776 273.294 246.566 272.522L246.599 272.49C247.031 272.067 247.251 271.469 247.196 270.864L245.935 256.894C245.913 256.648 246.002 256.405 246.178 256.233C246.499 255.92 247.011 255.928 247.322 256.252L254.514 263.746C254.836 264.081 255.032 264.519 255.069 264.985L256.107 278.186C256.143 278.651 256.339 279.089 256.661 279.425L257.232 280.019C257.997 280.816 259.257 280.836 260.047 280.064L260.142 279.972C260.539 279.584 260.758 279.047 260.747 278.49L260.691 275.526C260.657 273.714 262.829 272.785 264.094 274.071L276.636 286.813C277.067 287.25 277.672 287.464 278.278 287.393L278.517 287.365C279.365 287.265 280.056 286.631 280.235 285.789L280.323 285.374C280.458 284.736 280.278 284.072 279.841 283.592L267.46 270.025C266.297 268.75 267.171 266.687 268.887 266.654L273.077 266.574C273.581 266.565 274.062 266.363 274.424 266.009L274.793 265.649C275.582 264.876 275.603 263.604 274.838 262.808L274.314 262.262C273.964 261.897 273.489 261.68 272.986 261.654L259.23 260.947C258.727 260.921 258.253 260.703 257.902 260.338L250.616 252.747C250.383 252.504 250.389 252.116 250.63 251.881C250.762 251.752 250.944 251.691 251.126 251.713L265.017 253.442C265.615 253.516 266.214 253.314 266.646 252.891L267.109 252.439C267.898 251.667 267.919 250.395 267.154 249.598L266.774 249.203C266.472 248.887 266.075 248.681 265.646 248.615L245.479 245.505C245.049 245.438 244.652 245.232 244.35 244.917Z"/>
</mask>
<path d="M114.326 102.05L114.307 104.473C114.293 106.271 112.125 107.147 110.886 105.856L99.2474 93.7294C98.8687 93.3348 98.3464 93.114 97.802 93.1184L96.9511 93.1252C95.8428 93.1341 94.9549 94.0548 94.976 95.1732L94.9901 95.9195C94.9993 96.4095 95.1856 96.879 95.514 97.2399L106.761 109.601C107.984 110.945 106.94 113.108 105.136 112.963L103.421 112.825C102.851 112.779 102.288 112.983 101.878 113.385L100.743 114.494C100.038 115.183 99.9358 116.288 100.502 117.097L101.237 118.146C101.572 118.625 102.098 118.932 102.677 118.986L116.557 120.291C117.047 120.338 117.503 120.565 117.836 120.931L121.594 125.049C122.859 126.435 121.705 128.66 119.855 128.4L111.242 127.191C110.732 127.12 110.215 127.25 109.799 127.555L108.64 128.403C107.659 129.121 107.535 130.549 108.378 131.428L109.378 132.469C109.717 132.822 110.172 133.038 110.658 133.075L129.804 134.534C130.29 134.571 130.745 134.786 131.084 135.139L136.367 140.644C137.132 141.441 138.392 141.461 139.182 140.689L140.401 139.497C141.191 138.725 141.211 137.453 140.446 136.656L135.172 131.16C134.828 130.802 134.628 130.327 134.612 129.828L133.976 110.283C133.96 109.785 133.76 109.31 133.416 108.952L132.546 108.045C131.74 107.204 130.395 107.235 129.626 108.111L128.827 109.021C128.47 109.428 128.291 109.964 128.332 110.506L129.002 119.414C129.145 121.314 126.831 122.33 125.552 120.928L121.855 116.876C121.558 116.551 121.376 116.137 121.336 115.697L120.079 101.765C120.038 101.308 119.843 100.879 119.527 100.55L118.723 99.713C117.959 98.9161 116.698 98.896 115.908 99.6682L114.932 100.623C114.549 100.998 114.33 101.512 114.326 102.05Z" fill="#4BA1FC"/>
<path d="M240.042 131.499L233.217 138.171C232.427 138.944 232.407 140.216 233.171 141.012L234.417 142.31C235.181 143.107 236.442 143.127 237.232 142.355L244.07 135.67C244.415 135.333 244.868 135.133 245.348 135.106L266.798 133.936C267.277 133.91 267.731 133.71 268.076 133.373L268.699 132.764C269.564 131.918 269.493 130.498 268.549 129.744L267.316 128.761C266.969 128.484 266.539 128.331 266.097 128.328L256.553 128.257C254.772 128.243 253.904 126.056 255.184 124.805L258.164 121.891C258.554 121.509 259.082 121.305 259.625 121.326L274.613 121.9C275.249 121.924 275.858 121.641 276.252 121.137L277.203 119.92C277.949 118.965 277.691 117.565 276.653 116.946L274.17 115.466C273.893 115.3 273.58 115.205 273.259 115.189L270.002 115.021C268.264 114.932 267.469 112.794 268.719 111.572L280.008 100.536C280.431 100.122 280.651 99.5413 280.609 98.9488L280.51 97.5507C280.435 96.4933 279.559 95.6768 278.509 95.6853L277.457 95.6937C276.945 95.6978 276.455 95.9006 276.087 96.2599L265.029 107.071C263.733 108.338 261.57 107.352 261.656 105.533L261.844 101.554C261.87 100.999 261.668 100.459 261.285 100.06L260.416 99.155C259.554 98.2564 258.096 98.3636 257.371 99.3788L255.908 101.428C255.685 101.741 255.556 102.111 255.535 102.496L254.802 116.323C254.775 116.829 254.56 117.306 254.199 117.659L250.71 121.07C249.405 122.345 247.229 121.337 247.338 119.507L247.974 108.809C248.008 108.247 247.805 107.696 247.417 107.291L246.71 106.554C245.872 105.681 244.463 105.754 243.717 106.708L242.518 108.242C242.27 108.559 242.123 108.943 242.095 109.346L240.643 130.196C240.608 130.69 240.394 131.154 240.042 131.499Z" fill="#4BA1FC"/>
<path d="M134.572 234.609L127.769 241.259C127.403 241.617 126.915 241.82 126.405 241.825L106.418 242.034C105.999 242.039 105.592 242.176 105.255 242.427L104.01 243.356C102.947 244.148 102.929 245.745 103.973 246.561L104.704 247.131C105.04 247.394 105.451 247.541 105.876 247.551L116.217 247.793C117.983 247.834 118.824 250.004 117.555 251.244L113.65 255.062C113.254 255.45 112.715 255.654 112.164 255.626L99.6449 254.982C99.2381 254.961 98.8346 255.067 98.489 255.285L97.2198 256.084C96.1444 256.762 95.9619 258.268 96.8437 259.187L97.747 260.128C98.0737 260.468 98.5093 260.681 98.9766 260.729L102.755 261.114C104.44 261.285 105.156 263.366 103.94 264.556L92.3502 275.886C91.9795 276.248 91.7627 276.741 91.7454 277.262L91.7021 278.562C91.6643 279.698 92.5678 280.64 93.6947 280.638L94.9832 280.635C95.4991 280.634 95.9945 280.431 96.3651 280.069L107.818 268.873C109.056 267.662 111.13 268.504 111.192 270.243L111.469 278.019C111.487 278.516 111.686 278.988 112.029 279.344L112.788 280.136C113.553 280.933 114.814 280.953 115.603 280.181L116.362 279.439C116.747 279.063 116.966 278.545 116.968 278.004L117.04 260.7C117.042 260.159 117.26 259.641 117.646 259.265L121.271 255.72C122.58 254.44 124.764 255.461 124.642 257.297L124.006 266.907C123.98 267.294 124.066 267.681 124.254 268.02L124.968 269.312C125.605 270.464 127.152 270.693 128.091 269.775L129.118 268.771C129.471 268.426 129.685 267.962 129.719 267.468L131.16 246.768C131.195 246.273 131.409 245.81 131.761 245.465L138.587 238.792C139.377 238.02 139.397 236.748 138.632 235.951L137.387 234.654C136.622 233.857 135.362 233.837 134.572 234.609Z" fill="#4BA1FC"/>
<path d="M244.35 244.917L236.386 236.619C235.622 235.822 234.361 235.802 233.571 236.575L231.923 238.186C231.133 238.958 231.113 240.23 231.878 241.027L239.841 249.324C240.143 249.64 240.335 250.046 240.387 250.482L242.825 270.924C242.877 271.36 243.069 271.767 243.371 272.082L243.751 272.477C244.516 273.274 245.776 273.294 246.566 272.522L246.599 272.49C247.031 272.067 247.251 271.469 247.196 270.864L245.935 256.894C245.913 256.648 246.002 256.405 246.178 256.233C246.499 255.92 247.011 255.928 247.322 256.252L254.514 263.746C254.836 264.081 255.032 264.519 255.069 264.985L256.107 278.186C256.143 278.651 256.339 279.089 256.661 279.425L257.232 280.019C257.997 280.816 259.257 280.836 260.047 280.064L260.142 279.972C260.539 279.584 260.758 279.047 260.747 278.49L260.691 275.526C260.657 273.714 262.829 272.785 264.094 274.071L276.636 286.813C277.067 287.25 277.672 287.464 278.278 287.393L278.517 287.365C279.365 287.265 280.056 286.631 280.235 285.789L280.323 285.374C280.458 284.736 280.278 284.072 279.841 283.592L267.46 270.025C266.297 268.75 267.171 266.687 268.887 266.654L273.077 266.574C273.581 266.565 274.062 266.363 274.424 266.009L274.793 265.649C275.582 264.876 275.603 263.604 274.838 262.808L274.314 262.262C273.964 261.897 273.489 261.68 272.986 261.654L259.23 260.947C258.727 260.921 258.253 260.703 257.902 260.338L250.616 252.747C250.383 252.504 250.389 252.116 250.63 251.881C250.762 251.752 250.944 251.691 251.126 251.713L265.017 253.442C265.615 253.516 266.214 253.314 266.646 252.891L267.109 252.439C267.898 251.667 267.919 250.395 267.154 249.598L266.774 249.203C266.472 248.887 266.075 248.681 265.646 248.615L245.479 245.505C245.049 245.438 244.652 245.232 244.35 244.917Z" fill="#4BA1FC"/>
<path d="M114.326 102.05L114.307 104.473C114.293 106.271 112.125 107.147 110.886 105.856L99.2474 93.7294C98.8687 93.3348 98.3464 93.114 97.802 93.1184L96.9511 93.1252C95.8428 93.1341 94.9549 94.0548 94.976 95.1732L94.9901 95.9195C94.9993 96.4095 95.1856 96.879 95.514 97.2399L106.761 109.601C107.984 110.945 106.94 113.108 105.136 112.963L103.421 112.825C102.851 112.779 102.288 112.983 101.878 113.385L100.743 114.494C100.038 115.183 99.9358 116.288 100.502 117.097L101.237 118.146C101.572 118.625 102.098 118.932 102.677 118.986L116.557 120.291C117.047 120.338 117.503 120.565 117.836 120.931L121.594 125.049C122.859 126.435 121.705 128.66 119.855 128.4L111.242 127.191C110.732 127.12 110.215 127.25 109.799 127.555L108.64 128.403C107.659 129.121 107.535 130.549 108.378 131.428L109.378 132.469C109.717 132.822 110.172 133.038 110.658 133.075L129.804 134.534C130.29 134.571 130.745 134.786 131.084 135.139L136.367 140.644C137.132 141.441 138.392 141.461 139.182 140.689L140.401 139.497C141.191 138.725 141.211 137.453 140.446 136.656L135.172 131.16C134.828 130.802 134.628 130.327 134.612 129.828L133.976 110.283C133.96 109.785 133.76 109.31 133.416 108.952L132.546 108.045C131.74 107.204 130.395 107.235 129.626 108.111L128.827 109.021C128.47 109.428 128.291 109.964 128.332 110.506L129.002 119.414C129.145 121.314 126.831 122.33 125.552 120.928L121.855 116.876C121.558 116.551 121.376 116.137 121.336 115.697L120.079 101.765C120.038 101.308 119.843 100.879 119.527 100.55L118.723 99.713C117.959 98.9161 116.698 98.896 115.908 99.6682L114.932 100.623C114.549 100.998 114.33 101.512 114.326 102.05Z" stroke="#4BA1FC" stroke-width="2" mask="url(#path-2-inside-2_120_38)"/>
<path d="M240.042 131.499L233.217 138.171C232.427 138.944 232.407 140.216 233.171 141.012L234.417 142.31C235.181 143.107 236.442 143.127 237.232 142.355L244.07 135.67C244.415 135.333 244.868 135.133 245.348 135.106L266.798 133.936C267.277 133.91 267.731 133.71 268.076 133.373L268.699 132.764C269.564 131.918 269.493 130.498 268.549 129.744L267.316 128.761C266.969 128.484 266.539 128.331 266.097 128.328L256.553 128.257C254.772 128.243 253.904 126.056 255.184 124.805L258.164 121.891C258.554 121.509 259.082 121.305 259.625 121.326L274.613 121.9C275.249 121.924 275.858 121.641 276.252 121.137L277.203 119.92C277.949 118.965 277.691 117.565 276.653 116.946L274.17 115.466C273.893 115.3 273.58 115.205 273.259 115.189L270.002 115.021C268.264 114.932 267.469 112.794 268.719 111.572L280.008 100.536C280.431 100.122 280.651 99.5413 280.609 98.9488L280.51 97.5507C280.435 96.4933 279.559 95.6768 278.509 95.6853L277.457 95.6937C276.945 95.6978 276.455 95.9006 276.087 96.2599L265.029 107.071C263.733 108.338 261.57 107.352 261.656 105.533L261.844 101.554C261.87 100.999 261.668 100.459 261.285 100.06L260.416 99.155C259.554 98.2564 258.096 98.3636 257.371 99.3788L255.908 101.428C255.685 101.741 255.556 102.111 255.535 102.496L254.802 116.323C254.775 116.829 254.56 117.306 254.199 117.659L250.71 121.07C249.405 122.345 247.229 121.337 247.338 119.507L247.974 108.809C248.008 108.247 247.805 107.696 247.417 107.291L246.71 106.554C245.872 105.681 244.463 105.754 243.717 106.708L242.518 108.242C242.27 108.559 242.123 108.943 242.095 109.346L240.643 130.196C240.608 130.69 240.394 131.154 240.042 131.499Z" stroke="#4BA1FC" stroke-width="2" mask="url(#path-2-inside-2_120_38)"/>
<path d="M134.572 234.609L127.769 241.259C127.403 241.617 126.915 241.82 126.405 241.825L106.418 242.034C105.999 242.039 105.592 242.176 105.255 242.427L104.01 243.356C102.947 244.148 102.929 245.745 103.973 246.561L104.704 247.131C105.04 247.394 105.451 247.541 105.876 247.551L116.217 247.793C117.983 247.834 118.824 250.004 117.555 251.244L113.65 255.062C113.254 255.45 112.715 255.654 112.164 255.626L99.6449 254.982C99.2381 254.961 98.8346 255.067 98.489 255.285L97.2198 256.084C96.1444 256.762 95.9619 258.268 96.8437 259.187L97.747 260.128C98.0737 260.468 98.5093 260.681 98.9766 260.729L102.755 261.114C104.44 261.285 105.156 263.366 103.94 264.556L92.3502 275.886C91.9795 276.248 91.7627 276.741 91.7454 277.262L91.7021 278.562C91.6643 279.698 92.5678 280.64 93.6947 280.638L94.9832 280.635C95.4991 280.634 95.9945 280.431 96.3651 280.069L107.818 268.873C109.056 267.662 111.13 268.504 111.192 270.243L111.469 278.019C111.487 278.516 111.686 278.988 112.029 279.344L112.788 280.136C113.553 280.933 114.814 280.953 115.603 280.181L116.362 279.439C116.747 279.063 116.966 278.545 116.968 278.004L117.04 260.7C117.042 260.159 117.26 259.641 117.646 259.265L121.271 255.72C122.58 254.44 124.764 255.461 124.642 257.297L124.006 266.907C123.98 267.294 124.066 267.681 124.254 268.02L124.968 269.312C125.605 270.464 127.152 270.693 128.091 269.775L129.118 268.771C129.471 268.426 129.685 267.962 129.719 267.468L131.16 246.768C131.195 246.273 131.409 245.81 131.761 245.465L138.587 238.792C139.377 238.02 139.397 236.748 138.632 235.951L137.387 234.654C136.622 233.857 135.362 233.837 134.572 234.609Z" stroke="#4BA1FC" stroke-width="2" mask="url(#path-2-inside-2_120_38)"/>
<path d="M244.35 244.917L236.386 236.619C235.622 235.822 234.361 235.802 233.571 236.575L231.923 238.186C231.133 238.958 231.113 240.23 231.878 241.027L239.841 249.324C240.143 249.64 240.335 250.046 240.387 250.482L242.825 270.924C242.877 271.36 243.069 271.767 243.371 272.082L243.751 272.477C244.516 273.274 245.776 273.294 246.566 272.522L246.599 272.49C247.031 272.067 247.251 271.469 247.196 270.864L245.935 256.894C245.913 256.648 246.002 256.405 246.178 256.233C246.499 255.92 247.011 255.928 247.322 256.252L254.514 263.746C254.836 264.081 255.032 264.519 255.069 264.985L256.107 278.186C256.143 278.651 256.339 279.089 256.661 279.425L257.232 280.019C257.997 280.816 259.257 280.836 260.047 280.064L260.142 279.972C260.539 279.584 260.758 279.047 260.747 278.49L260.691 275.526C260.657 273.714 262.829 272.785 264.094 274.071L276.636 286.813C277.067 287.25 277.672 287.464 278.278 287.393L278.517 287.365C279.365 287.265 280.056 286.631 280.235 285.789L280.323 285.374C280.458 284.736 280.278 284.072 279.841 283.592L267.46 270.025C266.297 268.75 267.171 266.687 268.887 266.654L273.077 266.574C273.581 266.565 274.062 266.363 274.424 266.009L274.793 265.649C275.582 264.876 275.603 263.604 274.838 262.808L274.314 262.262C273.964 261.897 273.489 261.68 272.986 261.654L259.23 260.947C258.727 260.921 258.253 260.703 257.902 260.338L250.616 252.747C250.383 252.504 250.389 252.116 250.63 251.881C250.762 251.752 250.944 251.691 251.126 251.713L265.017 253.442C265.615 253.516 266.214 253.314 266.646 252.891L267.109 252.439C267.898 251.667 267.919 250.395 267.154 249.598L266.774 249.203C266.472 248.887 266.075 248.681 265.646 248.615L245.479 245.505C245.049 245.438 244.652 245.232 244.35 244.917Z" stroke="#4BA1FC" stroke-width="2" mask="url(#path-2-inside-2_120_38)"/>
<ellipse cx="188" cy="191.5" rx="67" ry="68.5" fill="#B4E9F5"/>
<path d="M262 191.5C262 233.197 228.869 267 188 267C147.131 267 114 233.197 114 191.5C114 149.803 147.131 116 188 116C228.869 116 262 149.803 262 191.5ZM121.256 191.5C121.256 229.109 151.139 259.596 188 259.596C224.861 259.596 254.744 229.109 254.744 191.5C254.744 153.891 224.861 123.404 188 123.404C151.139 123.404 121.256 153.891 121.256 191.5Z" fill="#4BA1FC"/>
<path d="M221.204 96.5864C221.456 96.2336 221.816 95.973 222.229 95.8442L226.194 94.6089C226.504 94.5124 226.833 94.4933 227.153 94.5531L242.143 97.3577C243.6 97.6303 244.275 99.3393 243.394 100.527L213.803 140.417C212.747 141.841 213.939 143.846 215.696 143.601L231.868 141.343C233.619 141.099 234.812 143.089 233.77 144.515L198.102 193.346C197.01 194.842 198.372 196.904 200.177 196.486L208.801 194.489C210.696 194.051 212.048 196.315 210.761 197.773L139.898 277.998C139.846 278.057 139.79 278.112 139.729 278.162L139.6 278.268C138.426 279.234 136.739 277.962 137.335 276.56V276.56C137.363 276.495 137.396 276.432 137.433 276.371L171.947 219.974C172.843 218.511 171.594 216.662 169.902 216.945L160.89 218.456C159.137 218.749 157.891 216.77 158.916 215.318L188.921 172.795C189.944 171.346 188.704 169.369 186.953 169.657L171.536 172.192C169.78 172.481 168.541 170.495 169.573 169.046L221.204 96.5864Z" fill="#FFA500"/>
</svg>
