<svg width="107" height="185" viewBox="0 0 107 185" fill="none" xmlns="http://www.w3.org/2000/svg">
<path d="M84.2045 2.58644C84.4559 2.23357 84.8156 1.97302 85.2292 1.84418L89.1943 0.608932C89.5041 0.512431 89.8331 0.493261 90.1529 0.553086L105.143 3.35768C106.6 3.63025 107.275 5.33928 106.394 6.52668L76.8035 46.4167C75.7469 47.8411 76.9388 49.846 78.6964 49.6007L94.868 47.343C96.6186 47.0986 97.8115 49.0887 96.7696 50.5151L61.1022 99.346C60.0095 100.842 61.3722 102.904 63.1773 102.486L71.8006 100.489C73.6958 100.051 75.0477 102.315 73.7605 103.773L2.89839 183.998C2.84628 184.057 2.78957 184.112 2.72879 184.162L2.6001 184.268C1.42585 185.234 -0.260925 183.962 0.335157 182.56V182.56C0.362966 182.495 0.395533 182.432 0.432594 182.371L34.9475 125.974C35.8431 124.511 34.5943 122.662 32.902 122.945L23.8903 124.456C22.137 124.749 20.8915 122.77 21.9161 121.318L51.921 78.7954C52.9439 77.3457 51.7041 75.3688 49.9527 75.6568L34.5361 78.1924C32.7804 78.4811 31.541 76.4949 32.5731 75.0464L84.2045 2.58644Z" fill="#FFA500"/>
</svg>
